<svg id="Layer_1" data-name="Layer 1" xmlns="http://www.w3.org/2000/svg" viewBox="0 0 33 22.06"><defs><style>.cls-1,.cls-3{fill:#59244a;}.cls-2{fill:#481d3c;}.cls-3{stroke:#481d3c;stroke-miterlimit:10;stroke-width:0.5px;}</style></defs><title>pattern</title><line id="_Path_" data-name="&lt;Path&gt;" class="cls-1" x1="4.1" y1="1.95" x2="4.1" y2="0.06"/><rect class="cls-2" x="3.85" y="0.06" width="0.5" height="1.89"/><line id="_Path_2" data-name="&lt;Path&gt;" class="cls-1" x1="2.4" y1="0.25" x2="9.66" y2="0.25"/><rect class="cls-2" x="2.4" width="7.26" height="0.5"/><line id="_Path_3" data-name="&lt;Path&gt;" class="cls-1" x1="15.1" y1="1.95" x2="15.1" y2="0.06"/><rect class="cls-2" x="14.85" y="0.06" width="0.5" height="1.89"/><line id="_Path_4" data-name="&lt;Path&gt;" class="cls-1" x1="13.4" y1="0.25" x2="20.66" y2="0.25"/><rect class="cls-2" x="13.4" width="7.26" height="0.5"/><line id="_Path_5" data-name="&lt;Path&gt;" class="cls-1" x1="26.1" y1="1.95" x2="26.1" y2="0.06"/><rect class="cls-2" x="25.85" y="0.06" width="0.5" height="1.89"/><line id="_Path_6" data-name="&lt;Path&gt;" class="cls-1" x1="24.4" y1="0.25" x2="31.66" y2="0.25"/><rect class="cls-2" x="24.4" width="7.26" height="0.5"/><line id="_Path_7" data-name="&lt;Path&gt;" class="cls-1" y1="7.62" x2="0.26" y2="7.62"/><rect class="cls-2" y="7.37" width="0.26" height="0.5"/><line id="_Path_8" data-name="&lt;Path&gt;" class="cls-1" y1="11.25" x2="3.66" y2="11.25"/><rect class="cls-2" y="11" width="3.66" height="0.5"/><line id="_Path_9" data-name="&lt;Path&gt;" class="cls-1" x1="5.7" y1="9.32" x2="5.7" y2="2.06"/><rect class="cls-2" x="5.45" y="2.06" width="0.5" height="7.26"/><line id="_Path_10" data-name="&lt;Path&gt;" class="cls-1" x1="4" y1="7.62" x2="11.26" y2="7.62"/><rect class="cls-2" x="4" y="7.37" width="7.26" height="0.5"/><line id="_Path_11" data-name="&lt;Path&gt;" class="cls-1" x1="9.1" y1="12.95" x2="9.1" y2="5.69"/><rect class="cls-2" x="8.85" y="5.69" width="0.5" height="7.26"/><line id="_Path_12" data-name="&lt;Path&gt;" class="cls-1" x1="7.4" y1="11.25" x2="14.66" y2="11.25"/><rect class="cls-2" x="7.4" y="11" width="7.26" height="0.5"/><line id="_Path_13" data-name="&lt;Path&gt;" class="cls-1" x1="16.7" y1="9.32" x2="16.7" y2="2.06"/><rect class="cls-2" x="16.45" y="2.06" width="0.5" height="7.26"/><line id="_Path_14" data-name="&lt;Path&gt;" class="cls-1" x1="15" y1="7.62" x2="22.26" y2="7.62"/><rect class="cls-2" x="15" y="7.37" width="7.26" height="0.5"/><line id="_Path_15" data-name="&lt;Path&gt;" class="cls-1" x1="20.1" y1="12.95" x2="20.1" y2="5.69"/><rect class="cls-2" x="19.85" y="5.69" width="0.5" height="7.26"/><line id="_Path_16" data-name="&lt;Path&gt;" class="cls-1" x1="18.4" y1="11.25" x2="25.66" y2="11.25"/><rect class="cls-2" x="18.4" y="11" width="7.26" height="0.5"/><line id="_Path_17" data-name="&lt;Path&gt;" class="cls-1" x1="27.7" y1="9.32" x2="27.7" y2="2.06"/><rect class="cls-2" x="27.45" y="2.06" width="0.5" height="7.26"/><line id="_Path_18" data-name="&lt;Path&gt;" class="cls-1" x1="25.74" y1="7.62" x2="33" y2="7.62"/><rect class="cls-2" x="25.74" y="7.37" width="7.26" height="0.5"/><line id="_Path_19" data-name="&lt;Path&gt;" class="cls-1" x1="31.1" y1="12.95" x2="31.1" y2="5.69"/><rect class="cls-2" x="30.85" y="5.69" width="0.5" height="7.26"/><line id="_Path_20" data-name="&lt;Path&gt;" class="cls-1" x1="29.4" y1="11.25" x2="33" y2="11.25"/><rect class="cls-2" x="29.4" y="11" width="3.6" height="0.5"/><line id="_Path_21" data-name="&lt;Path&gt;" class="cls-1" x1="0.7" y1="20.32" x2="0.7" y2="13.06"/><rect class="cls-2" x="0.45" y="13.06" width="0.5" height="7.26"/><line id="_Path_22" data-name="&lt;Path&gt;" class="cls-1" y1="18.62" x2="6.26" y2="18.62"/><rect class="cls-2" y="18.37" width="6.26" height="0.5"/><line id="_Path_23" data-name="&lt;Path&gt;" class="cls-1" x1="4.1" y1="22.06" x2="4.1" y2="16.69"/><rect class="cls-2" x="3.85" y="16.69" width="0.5" height="5.37"/><path id="_Path_24" data-name="&lt;Path&gt;" class="cls-3" d="M9.66,22.19" transform="translate(0 0.06)"/><line id="_Path_25" data-name="&lt;Path&gt;" class="cls-1" x1="11.7" y1="20.32" x2="11.7" y2="13.06"/><rect class="cls-2" x="11.45" y="13.06" width="0.5" height="7.26"/><line id="_Path_26" data-name="&lt;Path&gt;" class="cls-1" x1="10" y1="18.62" x2="17.26" y2="18.62"/><rect class="cls-2" x="10" y="18.37" width="7.26" height="0.5"/><line id="_Path_27" data-name="&lt;Path&gt;" class="cls-1" x1="15.1" y1="22.06" x2="15.1" y2="16.69"/><rect class="cls-2" x="14.85" y="16.69" width="0.5" height="5.37"/><line id="_Path_28" data-name="&lt;Path&gt;" class="cls-1" x1="22.7" y1="20.32" x2="22.7" y2="13.06"/><rect class="cls-2" x="22.45" y="13.06" width="0.5" height="7.26"/><line id="_Path_29" data-name="&lt;Path&gt;" class="cls-1" x1="21" y1="18.62" x2="28.26" y2="18.62"/><rect class="cls-2" x="21" y="18.37" width="7.26" height="0.5"/><line id="_Path_30" data-name="&lt;Path&gt;" class="cls-1" x1="26.1" y1="22.06" x2="26.1" y2="16.69"/><rect class="cls-2" x="25.85" y="16.69" width="0.5" height="5.37"/><line id="_Path_31" data-name="&lt;Path&gt;" class="cls-1" x1="32" y1="18.62" x2="33" y2="18.62"/><rect class="cls-2" x="32" y="18.37" width="1" height="0.5"/></svg>